<svg width="29" height="28" viewBox="0 0 29 28" fill="none" xmlns="http://www.w3.org/2000/svg">
<path fill-rule="evenodd" clip-rule="evenodd" d="M14.3373 0.0701531C7.47219 0.071077 1.62059 5.04977 0.520183 11.8261C-0.580224 18.6024 3.39525 25.1769 9.90728 27.3502C10.6073 27.4802 10.9073 27.0502 10.9073 26.6802V24.3002C7.01728 25.1402 6.19728 22.4202 6.19728 22.4202C5.92373 21.563 5.348 20.8344 4.57728 20.3702C3.30728 19.5102 4.67728 19.5202 4.67728 19.5202C5.57623 19.6471 6.36609 20.1823 6.81728 20.9702C7.62386 22.4168 9.45025 22.9361 10.8973 22.1302C10.9537 21.4206 11.2665 20.7559 11.7773 20.2602C8.67728 19.9002 5.40728 18.7002 5.40728 13.3402C5.38461 11.948 5.9005 10.601 6.84728 9.58015C6.41874 8.37435 6.46884 7.05013 6.98728 5.88015C6.98728 5.88015 8.15728 5.50015 10.8373 7.31015C13.1288 6.6851 15.5458 6.6851 17.8373 7.31015C20.5073 5.50015 21.6773 5.88015 21.6773 5.88015C22.1957 7.05013 22.2458 8.37435 21.8173 9.58015C22.7641 10.601 23.28 11.948 23.2573 13.3402C23.2573 18.7202 19.9873 19.9002 16.8673 20.2502C17.5435 20.9355 17.8899 21.8801 17.8173 22.8402V26.6802C17.8173 27.1402 18.0673 27.4902 18.8173 27.3502C25.3384 25.174 29.3146 18.5851 28.2006 11.8013C27.0865 5.01756 21.2119 0.0464032 14.3373 0.0701531Z" fill="#FF3A66"/>
</svg>
