<svg width="34" height="33" viewBox="0 0 34 33" fill="none" xmlns="http://www.w3.org/2000/svg">
<path fill-rule="evenodd" clip-rule="evenodd" d="M17.2468 0C8.24678 0 0.946777 7.50355 0.946777 16.7545C0.946777 24.1553 5.64678 30.4254 12.0468 32.6867C12.8468 32.7895 13.1468 32.2756 13.1468 31.8644C13.1468 31.4532 13.1468 30.4254 13.1468 28.9863C8.64678 30.0142 7.64678 26.725 7.64678 26.725C6.94678 24.772 5.84678 24.2581 5.84678 24.2581C4.34678 23.2302 5.94678 23.2302 5.94678 23.2302C7.54678 23.333 8.44678 24.9776 8.44678 24.9776C9.94678 27.5473 12.2468 26.8278 13.1468 26.4166C13.2468 25.2859 13.7468 24.5664 14.1468 24.1553C10.5468 23.7441 6.74678 22.3051 6.74678 15.8294C6.74678 13.9792 7.34678 12.5402 8.44678 11.3067C8.34678 10.9984 7.74678 9.25095 8.64678 6.98961C8.64678 6.98961 10.0468 6.57846 13.1468 8.73701C14.4468 8.32586 15.8468 8.22307 17.2468 8.22307C18.6468 8.22307 20.0468 8.42865 21.3468 8.73701C24.4468 6.57846 25.8468 6.98961 25.8468 6.98961C26.7468 9.25095 26.1468 10.9984 26.0468 11.4095C27.0468 12.5402 27.7468 14.082 27.7468 15.9322C27.7468 22.4079 23.9468 23.7441 20.3468 24.1553C20.9468 24.6692 21.4468 25.6971 21.4468 27.2389C21.4468 29.5003 21.4468 31.2477 21.4468 31.8644C21.4468 32.2756 21.7468 32.7895 22.5468 32.6867C29.0468 30.4254 33.6468 24.1553 33.6468 16.7545C33.5468 7.50355 26.2468 0 17.2468 0Z" fill="#FFFFF8"/>
</svg>
