<svg width="33" height="32" viewBox="0 0 33 32" fill="none" xmlns="http://www.w3.org/2000/svg">
<path fill-rule="evenodd" clip-rule="evenodd" d="M16.4155 0.151794C7.41548 0.151794 0.115479 7.45179 0.115479 16.4518C0.115479 23.6518 4.81548 29.7518 11.2155 31.9518C12.0155 32.0518 12.3155 31.5518 12.3155 31.1518C12.3155 30.7518 12.3155 29.7518 12.3155 28.3518C7.81548 29.3518 6.81548 26.1518 6.81548 26.1518C6.11548 24.2518 5.01548 23.7518 5.01548 23.7518C3.51548 22.7518 5.11548 22.7518 5.11548 22.7518C6.71548 22.8518 7.61548 24.4518 7.61548 24.4518C9.11548 26.9518 11.4155 26.2518 12.3155 25.8518C12.4155 24.7518 12.9155 24.0518 13.3155 23.6518C9.71548 23.2518 5.91548 21.8518 5.91548 15.5518C5.91548 13.7518 6.51548 12.3518 7.61548 11.1518C7.51548 10.8518 6.91548 9.15179 7.81548 6.95179C7.81548 6.95179 9.21548 6.55179 12.3155 8.65179C13.6155 8.25179 15.0155 8.15179 16.4155 8.15179C17.8155 8.15179 19.2155 8.35179 20.5155 8.65179C23.6155 6.55179 25.0155 6.95179 25.0155 6.95179C25.9155 9.15179 25.3155 10.8518 25.2155 11.2518C26.2155 12.3518 26.9155 13.8518 26.9155 15.6518C26.9155 21.9518 23.1155 23.2518 19.5155 23.6518C20.1155 24.1518 20.6155 25.1518 20.6155 26.6518C20.6155 28.8518 20.6155 30.5518 20.6155 31.1518C20.6155 31.5518 20.9155 32.0518 21.7155 31.9518C28.2155 29.7518 32.8155 23.6518 32.8155 16.4518C32.7155 7.45179 25.4155 0.151794 16.4155 0.151794Z" fill="#FFFFF8"/>
</svg>
