<svg width="32" height="32" viewBox="0 0 32 32" fill="none" xmlns="http://www.w3.org/2000/svg">
<path d="M27.2239 26.425H22.5008V19.2276C22.5008 17.5311 22.4478 15.3205 20.0597 15.3205C17.6186 15.3205 17.194 17.1712 17.194 19.1248V26.425H12.471V11.6704H16.9818V13.6754H17.0348C17.937 12.1331 19.6882 11.2077 21.5456 11.3105C26.3217 11.3105 27.2239 14.3951 27.2239 18.3536V26.425ZM7.11111 9.66542C5.57214 9.66542 4.35158 8.483 4.35158 6.99212C4.35158 5.50124 5.57214 4.31882 7.11111 4.31882C8.65008 4.31882 9.87065 5.50124 9.87065 6.99212C9.87065 8.483 8.65008 9.66542 7.11111 9.66542ZM9.49917 26.425H4.72305V11.6704H9.4461V26.425H9.49917ZM29.6119 0.0518188H2.33499C1.06136 0.0518188 0 1.0286 0 2.26243V28.7898C0 30.0236 1.06136 31.0518 2.33499 31.0004H29.5589C30.8325 31.0004 31.8939 30.0236 31.9469 28.7898V2.26243C31.9469 1.0286 30.8856 0.0518188 29.6119 0.0518188Z" fill="#FFFFF8"/>
</svg>
