<svg width="32" height="33" viewBox="0 0 32 33" fill="none" xmlns="http://www.w3.org/2000/svg">
<path d="M27.2691 27.31H22.5382V19.8685C22.5382 18.1145 22.485 15.8289 20.093 15.8289C17.6478 15.8289 17.2226 17.7424 17.2226 19.7622V27.31H12.4917V12.0551H17.01V14.128H17.0631C17.9668 12.5334 19.7209 11.5767 21.5814 11.683C26.3654 11.683 27.2691 14.8722 27.2691 18.9649V27.31ZM7.12292 9.98209C5.58139 9.98209 4.3588 8.75957 4.3588 7.21813C4.3588 5.6767 5.58139 4.45418 7.12292 4.45418C8.66445 4.45418 9.88704 5.6767 9.88704 7.21813C9.88704 8.75957 8.66445 9.98209 7.12292 9.98209ZM9.51495 27.31H4.7309V12.0551H9.46179V27.31H9.51495ZM29.6611 0.0424805H2.33887C1.06312 0.0424805 0 1.05239 0 2.32806V29.755C0 31.0307 1.06312 32.0937 2.33887 32.0406H29.608C30.8837 32.0406 31.9468 31.0307 32 29.755V2.32806C32 1.05239 30.9369 0.0424805 29.6611 0.0424805Z" fill="#FFFFF8"/>
</svg>
