<svg width="25" height="24" viewBox="0 0 25 24" fill="none" xmlns="http://www.w3.org/2000/svg">
<path fill-rule="evenodd" clip-rule="evenodd" d="M23.0723 0.0701012H2.6523C1.68456 0.0642829 0.889472 0.832718 0.862305 1.8001V22.2701C0.88416 23.2398 1.68241 24.0113 2.6523 24.0001H23.0723C24.0422 24.0113 24.8405 23.2398 24.8623 22.2701V1.8001C24.8351 0.832718 24.0401 0.0642829 23.0723 0.0701012ZM7.97227 20.4802H4.45227V9.07019H7.97227V20.4802ZM6.2523 7.48019C5.12832 7.48052 4.20945 6.58384 4.1823 5.46019C4.16252 4.90536 4.37425 4.36728 4.76682 3.9747C5.15939 3.58213 5.69748 3.3704 6.2523 3.39019C7.3371 3.46572 8.17851 4.36776 8.17851 5.45519C8.17851 6.54262 7.3371 7.44465 6.2523 7.52019V7.48019ZM21.3423 20.4102H17.8623V14.8302C17.8623 13.5002 17.8623 11.7702 16.0023 11.7702C14.1423 11.7702 13.8623 13.2302 13.8623 14.7002V20.3502H10.3023V9.07015H13.6223V10.5702H13.6923C14.386 9.36544 15.6935 8.64803 17.0823 8.71015C20.6723 8.71015 21.3423 11.1102 21.3423 14.1602V20.4102Z" fill="#FF3A66"/>
</svg>
